<?xml version="1.0" standalone="no"?>
<!DOCTYPE svg PUBLIC "-//W3C//DTD SVG 20010904//EN"
 "http://www.w3.org/TR/2001/REC-SVG-20010904/DTD/svg10.dtd">
<svg version="1.0" xmlns="http://www.w3.org/2000/svg"
 width="600.000000pt" height="600.000000pt" viewBox="0 0 600.000000 600.000000"
 preserveAspectRatio="xMidYMid meet">
<metadata>
Created by potrace 1.14, written by Peter Selinger 2001-2017
</metadata>
<g transform="translate(0.000000,600.000000) scale(0.100000,-0.100000)"
fill="#000000" stroke="none">
<path d="M5094 4938 c-12 -41 -103 -219 -139 -271 -96 -145 -334 -348 -540
-462 -27 -15 -54 -31 -60 -35 -5 -5 -13 -9 -18 -9 -4 0 -30 -12 -57 -26 -157
-80 -550 -216 -860 -299 -103 -27 -335 -97 -355 -106 -11 -5 -45 -19 -75 -30
-191 -73 -415 -239 -553 -410 -173 -215 -271 -446 -304 -720 -14 -107 -5 -402
12 -418 8 -9 302 -8 387 1 293 29 597 142 868 323 202 134 451 358 682 614
102 113 188 203 166 175 -53 -69 -173 -218 -297 -369 -108 -132 -351 -370
-461 -452 -52 -39 -135 -95 -183 -124 -187 -112 -473 -216 -647 -235 -30 -4
-66 -8 -80 -10 -25 -4 -162 -10 -430 -20 -324 -13 -511 -51 -695 -142 -326
-162 -556 -439 -581 -700 -11 -109 11 -213 33 -155 9 23 212 308 248 348 5 6
29 33 51 60 328 387 670 537 1066 465 121 -22 136 -25 350 -85 186 -52 278
-68 386 -69 176 -2 332 24 513 83 264 87 489 228 699 439 204 205 326 396 511
796 84 183 216 605 265 850 21 106 44 228 50 265 3 25 8 53 10 64 2 10 6 44 9
75 4 31 8 63 10 71 2 8 7 51 10 95 4 44 8 91 11 105 7 43 16 340 11 340 -3 0
-9 -10 -13 -22z"/>
</g>
</svg>
